<svg width="281" height="230" xmlns="http://www.w3.org/2000/svg" xmlns:xlink="http://www.w3.org/1999/xlink" xml:space="preserve" overflow="hidden"><defs><clipPath id="clip0"><rect x="1551" y="1084" width="281" height="230"/></clipPath></defs><g clip-path="url(#clip0)" transform="translate(-1551 -1084)"><path d="M1656.12 1161 1742 1161 1724.86 1190.97 1695.24 1190.97 1699.53 1183.4 1673.08 1183.4 1652.78 1221.24 1679.23 1221.24 1682.97 1214.3 1712.42 1214.3 1697.87 1241 1612 1241 1656.12 1161Z" fill="#09397E" fill-rule="evenodd"/><path d="M1614.79 1160 1643 1160 1598.43 1240 1570 1240 1614.79 1160Z" fill="#09397E" fill-rule="evenodd"/><path d="M1756.13 1160 1814.06 1160C1816.59 1167.7 1817.52 1176.96 1818 1185.21L1787.25 1185.21 1755.38 1240 1724 1240 1755.87 1185.21 1741.5 1185.21 1756.13 1160Z" fill="#09397E" fill-rule="evenodd"/><path d="M1704.77 1084C1759.99 1084 1804.99 1111.18 1824 1150.73 1823.8 1150.4 1823.57 1150.17 1823.32 1150 1804.7 1123.35 1770.63 1105.87 1729.98 1105.87 1686.6 1105.87 1646.63 1125.79 1622.93 1155.51L1572.46 1155.51C1571.67 1156.79 1570.91 1158.08 1570.17 1159.39L1605.87 1159.39 1602.49 1165.32 1567.01 1165.32C1566.24 1166.87 1565.5 1168.44 1564.81 1170.02L1599.81 1170.02 1596.43 1175.96 1562.4 1175.96C1561.82 1177.51 1561.27 1179.07 1560.76 1180.66L1593.75 1180.66 1590.37 1186.59 1559.04 1186.59C1558.64 1188.15 1558.28 1189.71 1557.95 1191.29L1587.7 1191.29 1584.31 1197.22 1556.89 1197.22C1556.66 1198.75 1556.46 1200.29 1556.3 1201.84 1556.29 1201.87 1556.29 1201.89 1556.29 1201.92L1581.64 1201.92 1578.26 1207.86 1555.89 1207.86C1555.82 1209.43 1555.79 1211 1555.8 1212.55L1575.58 1212.55 1572.2 1218.49 1556.03 1218.49C1556.14 1220.07 1556.29 1221.63 1556.47 1223.19L1569.52 1223.19 1566.14 1229.13 1557.37 1229.13C1557.66 1230.7 1558 1232.27 1558.37 1233.82L1563.46 1233.82 1560.25 1239.46C1569.56 1258.36 1591.54 1271.65 1617.19 1271.65 1638.72 1271.65 1657.66 1262.29 1668.7 1248.12 1658.56 1265.24 1637.68 1277 1613.55 1277 1585.7 1277 1562.18 1261.35 1554.49 1239.85L1554.36 1239.85C1554.24 1239.39 1554.14 1238.91 1554.02 1238.45 1552.82 1234.73 1552.1 1230.84 1551.9 1226.84 1551.82 1226.13 1551.72 1225.42 1551.65 1224.7 1551 1218.06 1551 1211.24 1551.71 1204.27 1558.51 1137.85 1627.04 1084 1704.77 1084Z" fill="#09397E" fill-rule="evenodd"/><path d="M1772.94 1121.29C1805.58 1123.04 1829.42 1146.02 1831.55 1178.14 1832 1184.95 1831.58 1188.38 1831.11 1193.05 1824.3 1259.85 1755.73 1314 1677.96 1314 1622.71 1314 1577.02 1286.69 1558 1246.92 1558.2 1247.24 1558.5 1247.6 1559.01 1248.22 1577.64 1275.02 1612.07 1292.01 1652.74 1292.01 1695.57 1292.01 1735.09 1272.5 1758.91 1243.25L1808.14 1243.25C1809 1241.92 1809.83 1240.57 1810.63 1239.21L1765.77 1239.21 1769.15 1233.24 1813.94 1233.24C1814.75 1231.68 1815.53 1230.11 1816.26 1228.52L1771.83 1228.52 1775.22 1222.55 1818.81 1222.55C1819.42 1220.99 1820 1219.41 1820.54 1217.82L1777.89 1217.82 1781.28 1211.86 1822.38 1211.86C1822.82 1210.29 1823.23 1208.72 1823.59 1207.13L1783.95 1207.13 1787.34 1201.17 1824.78 1201.17C1825.04 1199.6 1825.26 1198.02 1825.45 1196.44L1790.01 1196.44 1793.4 1190.47 1826 1190.47C1826.33 1185.1 1826.2 1179.83 1825.68 1174.68 1821.15 1145.73 1798.3 1128.54 1768.98 1126.97 1747.47 1125.82 1727.99 1135.07 1716.12 1150.03 1727.27 1131.79 1748.83 1120 1772.94 1121.29Z" fill="#09397E" fill-rule="evenodd"/></g></svg>